<svg xmlns="http://www.w3.org/2000/svg" viewBox="0 0 512 512" width="512" height="512">
  <defs>
    <linearGradient id="bgGrad" x1="0%" y1="0%" x2="100%" y2="100%">
      <stop offset="0%" style="stop-color:#0f172a;stop-opacity:1" />
      <stop offset="100%" style="stop-color:#1e3a5f;stop-opacity:1" />
    </linearGradient>
    <linearGradient id="tearGrad" x1="0%" y1="0%" x2="100%" y2="100%">
      <stop offset="0%" style="stop-color:#60a5fa;stop-opacity:1" />
      <stop offset="100%" style="stop-color:#3b82f6;stop-opacity:1" />
    </linearGradient>
    <linearGradient id="threadGrad" x1="0%" y1="0%" x2="0%" y2="100%">
      <stop offset="0%" style="stop-color:#93c5fd;stop-opacity:1" />
      <stop offset="100%" style="stop-color:#1d4ed8;stop-opacity:1" />
    </linearGradient>
    <filter id="glow">
      <feGaussianBlur stdDeviation="3" result="coloredBlur"/>
      <feMerge>
        <feMergeNode in="coloredBlur"/>
        <feMergeNode in="SourceGraphic"/>
      </feMerge>
    </filter>
  </defs>
  <rect width="512" height="512" rx="100" ry="100" fill="url(#bgGrad)"/>
  <g opacity="0.06">
    <line x1="80" y1="0" x2="80" y2="512" stroke="#60a5fa" stroke-width="1"/>
    <line x1="160" y1="0" x2="160" y2="512" stroke="#60a5fa" stroke-width="1"/>
    <line x1="240" y1="0" x2="240" y2="512" stroke="#60a5fa" stroke-width="1"/>
    <line x1="320" y1="0" x2="320" y2="512" stroke="#60a5fa" stroke-width="1"/>
    <line x1="400" y1="0" x2="400" y2="512" stroke="#60a5fa" stroke-width="1"/>
    <line x1="0" y1="80" x2="512" y2="80" stroke="#60a5fa" stroke-width="1"/>
    <line x1="0" y1="160" x2="512" y2="160" stroke="#60a5fa" stroke-width="1"/>
    <line x1="0" y1="240" x2="512" y2="240" stroke="#60a5fa" stroke-width="1"/>
    <line x1="0" y1="320" x2="512" y2="320" stroke="#60a5fa" stroke-width="1"/>
    <line x1="0" y1="400" x2="512" y2="400" stroke="#60a5fa" stroke-width="1"/>
  </g>
  <rect x="100" y="90" width="18" height="332" rx="9" fill="url(#tearGrad)" opacity="0.9"/>
  <rect x="197" y="90" width="18" height="332" rx="9" fill="url(#tearGrad)" opacity="0.9"/>
  <rect x="294" y="90" width="18" height="332" rx="9" fill="url(#tearGrad)" opacity="0.9"/>
  <rect x="394" y="90" width="18" height="332" rx="9" fill="url(#tearGrad)" opacity="0.9"/>
  <rect x="80" y="80" width="352" height="24" rx="12" fill="#3b82f6"/>
  <rect x="80" y="408" width="352" height="24" rx="12" fill="#3b82f6"/>
  <rect x="118" y="148" width="276" height="10" rx="5" fill="url(#threadGrad)" opacity="0.95" filter="url(#glow)"/>
  <rect x="118" y="178" width="276" height="10" rx="5" fill="url(#threadGrad)" opacity="0.85"/>
  <rect x="118" y="208" width="276" height="10" rx="5" fill="url(#threadGrad)" opacity="0.95" filter="url(#glow)"/>
  <rect x="118" y="238" width="276" height="10" rx="5" fill="url(#threadGrad)" opacity="0.85"/>
  <rect x="118" y="268" width="276" height="10" rx="5" fill="url(#threadGrad)" opacity="0.95" filter="url(#glow)"/>
  <rect x="118" y="298" width="276" height="10" rx="5" fill="url(#threadGrad)" opacity="0.85"/>
  <rect x="118" y="328" width="276" height="10" rx="5" fill="url(#threadGrad)" opacity="0.95" filter="url(#glow)"/>
  <rect x="118" y="358" width="276" height="10" rx="5" fill="url(#threadGrad)" opacity="0.85"/>
  <circle cx="390" cy="122" r="22" fill="#ef4444" filter="url(#glow)"/>
  <circle cx="390" cy="122" r="14" fill="#fca5a5"/>
  <text x="390" y="128" text-anchor="middle" font-family="Arial" font-weight="900" font-size="18" fill="#7f1d1d">!</text>
  <text x="256" y="475" text-anchor="middle" font-family="Arial Black, Arial" font-weight="900" font-size="28" fill="#3b82f6" opacity="0.7" letter-spacing="4">CONTROLTEAR</text>
</svg>