<svg xmlns="http://www.w3.org/2000/svg" viewBox="0 0 512 512" width="512" height="512">
  <defs>
    <linearGradient id="bgGrad" x1="0%" y1="0%" x2="100%" y2="100%">
      <stop offset="0%" style="stop-color:#0f172a;stop-opacity:1" />
      <stop offset="100%" style="stop-color:#1e3a5f;stop-opacity:1" />
    </linearGradient>
    <linearGradient id="tearGrad" x1="0%" y1="0%" x2="100%" y2="100%">
      <stop offset="0%" style="stop-color:#60a5fa;stop-opacity:1" />
      <stop offset="100%" style="stop-color:#3b82f6;stop-opacity:1" />
    </linearGradient>
    <linearGradient id="threadGrad" x1="0%" y1="0%" x2="0%" y2="100%">
      <stop offset="0%" style="stop-color:#93c5fd;stop-opacity:1" />
      <stop offset="100%" style="stop-color:#1d4ed8;stop-opacity:1" />
    </linearGradient>
    <filter id="glow">
      <feGaussianBlur stdDeviation="3" result="coloredBlur"/>
      <feMerge>
        <feMergeNode in="coloredBlur"/>
        <feMergeNode in="SourceGraphic"/>
      </feMerge>
    </filter>
  </defs>
  <rect width="512" height="512" rx="100" ry="100" fill="url(#bgGrad)"/>
  <g opacity="0.06">
    <line x1="80" y1="0" x2="80" y2="512" stroke="#60a5fa" stroke-width="1"/>
    <line x1="160" y1="0" x2="160" y2="512" stroke="#60a5fa" stroke-width="1"/>
    <line x1="240" y1="0" x2="240" y2="512" stroke="#60a5fa" stroke-width="1"/>
    <line x1="320" y1="0" x2="320" y2="512" stroke="#60a5fa" stroke-width="1"/>
    <line x1="400" y1="0" x2="400" y2="512" stroke="#60a5fa" stroke-width="1"/>
    <line x1="0" y1="80" x2="512" y2="80" stroke="#60a5fa" stroke-width="1"/>
    <line x1="0" y1="160" x2="512" y2="160" stroke="#60a5fa" stroke-width="1"/>
    <line x1="0" y1="240" x2="512" y2="240" stroke="#60a5fa" stroke-width="1"/>
    <line x1="0" y1="320" x2="512" y2="320" stroke="#60a5fa" stroke-width="1"/>
    <line x1="0" y1="400" x2="512" y2="400" stroke="#60a5fa" stroke-width="1"/>
  </g>
  <g filter="url(#glow)">
    <path d="M256 116 C302 176 332 214 332 262 C332 320 291 366 256 366 C221 366 180 320 180 262 C180 214 210 176 256 116 Z" fill="url(#tearGrad)"/>
    <path d="M256 145 C285 188 304 219 304 255 C304 296 275 328 256 328 C237 328 208 296 208 255 C208 219 227 188 256 145 Z" fill="#dbeafe" opacity="0.18"/>
    <path d="M206 280 C224 286 240 290 256 290 C272 290 288 286 306 280" fill="none" stroke="#bfdbfe" stroke-width="10" stroke-linecap="round"/>
    <path d="M190 338 C214 326 234 318 256 318 C278 318 298 326 322 338" fill="none" stroke="url(#threadGrad)" stroke-width="12" stroke-linecap="round"/>
    <circle cx="256" cy="392" r="12" fill="#93c5fd"/>
  </g>
</svg>
